<?xml version="1.0" encoding="utf-8"?>
<!-- Generator: Adobe Illustrator 25.4.1, SVG Export Plug-In . SVG Version: 6.00 Build 0)  -->
<svg version="1.1" id="icon-pdf" xmlns="http://www.w3.org/2000/svg" xmlns:xlink="http://www.w3.org/1999/xlink" x="0px" y="0px"
	 viewBox="0 0 60 60" style="enable-background:new 0 0 60 60;" xml:space="preserve">
<style type="text/css">
	.st0{fill:#DDDDDD;}
	.st1{fill:#E31F1F;}
</style>
<g id="icon-pdf_00000123424732868081417310000010345648095809716374_" transform="translate(89 0.001)">
	<path id="パス_4026-2" class="st0" d="M-29,15.6L-29,15.6l0-1.8L-42.8,0h-1.8v0h-36.9c-4,0.3-7.2,3.5-7.5,7.5v45
		c0.3,4,3.5,7.2,7.5,7.5h45c4-0.3,7.2-3.5,7.5-7.5l0,0V15.6z"/>
	<path id="パス_4027" class="st1" d="M-39.5,34.6c-1-1.6-3.4-2.4-7.6-2.4c-1.3,0-2.7,0.1-4,0.2c-0.9-0.5-1.7-1.1-2.5-1.7
		c-2-1.6-3.6-4.2-4.8-7.8c0.4-2.2,0.6-4.5,0.7-6.8l0.1-1.7c0.2-1.2-0.1-2.4-0.7-3.3l-0.1-0.1c-0.6-0.7-1.4-1-2.3-1h-0.8
		c-1.4,0-2.6,1.1-2.8,2.5c-0.4,1.7-0.5,3.4-0.3,5c0.2,1.9,0.5,3.9,1.1,5.7c-0.9,3.1-2.1,6.1-3.6,9c-1,2-2,3.9-3,5.6
		c-0.3,0.2-0.7,0.4-1.3,0.6c-1.9,1-3.7,2.2-5.2,3.8c-1.1,1.1-1.9,2.4-2.4,3.9c-0.2,0.8-0.1,1.7,0.4,2.4l0.2,0.3
		c0.1,0.1,0.1,0.1,0.1,0.1l1.2,0.6c0.5,0.3,1,0.4,1.6,0.4h0c2.7,0,5.7-3,9.7-9.8c4.3-1.4,8.7-2.3,13.2-2.8c1.5,0.8,3,1.4,4.6,1.8
		c1.5,0.5,3,0.7,4.6,0.8c2.1,0,3.4-0.8,3.8-2.3v0c0.3-0.9,0.3-1.9,0-2.9L-39.5,34.6z M-41.7,36.8c-0.2,0-0.4,0-0.6,0
		c-1.6-0.1-3.1-0.4-4.5-1c2.8,0,4.5,0.3,5.1,0.9l0,0C-41.8,36.7-41.7,36.7-41.7,36.8L-41.7,36.8z M-75.4,46.8c0.5-1,1.1-1.9,1.8-2.7
		c1-1.1,2-2.2,3.2-3.1C-72.5,44.2-74.2,46.2-75.4,46.8L-75.4,46.8z M-60.4,14.3c0,0-0.1,0.4-0.1,0.5c-0.2,1-0.3,1.5-0.3,1.6
		c-0.1,0.9-0.2,1.4-0.3,1.6c-0.3-1.6-0.3-3.2,0.1-4.8V13c0,0,0,0,0-0.1C-60.5,13.3-60.4,13.8-60.4,14.3L-60.4,14.3z M-60.7,27
		c1.1,2.4,2.7,4.6,4.6,6.4c0.2,0.2,0.4,0.3,0.6,0.5c0.2,0.1,0.3,0.2,0.5,0.3c-3.6,0.6-7,1.6-10.4,3c0.4-0.7,0.9-1.7,1.6-3
		C-62.6,31.9-61.5,29.5-60.7,27L-60.7,27z"/>
</g>
</svg>
